<svg width="23" height="22" viewBox="0 0 23 22" fill="none" xmlns="http://www.w3.org/2000/svg">
<g clip-path="url(#clip0_757_3897)">
<path d="M10.2656 2.06298C10.108 2.12256 9.99983 2.15627 9.89791 2.20253C7.36561 3.34559 4.83645 4.49571 2.29945 5.62779C2.01408 5.7548 1.93254 5.9116 1.93333 6.21422C1.94352 11.2036 1.94038 16.1937 1.94038 21.183C1.94038 21.3374 1.94038 21.4911 1.94038 21.6691H0.00705594V21.2277C0.00705594 15.8079 0.0101919 10.3866 0 4.9661C0 4.66191 0.0823193 4.50982 0.367693 4.38203C3.54522 2.95751 6.71725 1.52124 9.88537 0.0755555C10.1668 -0.0530193 10.3236 -0.0263636 10.5416 0.207266C11.8595 1.62081 13.1954 3.01788 14.5352 4.41182C14.721 4.60547 14.801 4.79833 14.7963 5.06802C14.7806 5.96883 14.801 6.87042 14.7806 7.77123C14.7767 7.939 14.6881 8.14755 14.5674 8.26358C14.0092 8.8014 13.6572 9.43878 13.5592 10.2055C13.3498 11.8464 13.4768 13.4105 14.5925 14.759C14.9037 15.1353 14.7563 15.6598 14.3024 15.826C13.803 16.0086 13.2895 16.1662 12.7712 16.2854C11.6282 16.5488 10.6756 17.0294 10.2664 18.2532V2.06298H10.2656Z" fill="#BDBDBD"/>
<path d="M19.7049 11.3373C19.7731 12.6717 19.2525 13.7857 18.4254 14.7759C18.0569 15.2173 17.5528 15.4799 16.9915 15.5991C16.841 15.6312 16.6559 15.5819 16.5054 15.5231C15.1279 14.9797 14.4678 13.8414 14.2107 12.4898C14.0656 11.7262 14.1127 10.9038 14.2044 10.1229C14.3471 8.91008 15.5529 7.99672 16.8715 7.99124C18.1965 7.98575 19.3654 8.88969 19.5693 10.0963C19.6383 10.5063 19.661 10.9242 19.7041 11.3381L19.7049 11.3373Z" fill="#BDBDBD"/>
<path d="M14.3259 16.534C15.1099 18.2478 15.8837 19.9412 16.674 21.6691H10.7642C10.8089 20.6029 10.7854 19.5328 10.9187 18.483C11.019 17.688 11.6352 17.2357 12.3926 17.024C13.0182 16.8492 13.6525 16.7033 14.3259 16.5332V16.534Z" fill="#BDBDBD"/>
<path d="M22.9702 21.6731H17.1005C17.8899 19.9451 18.6692 18.2392 19.4485 16.5332C20.1259 16.7057 20.775 16.8421 21.4069 17.0381C22.5045 17.3783 22.9851 18.1098 22.9977 19.3956C23.0047 20.0863 22.9977 20.777 22.9945 21.4677C22.9945 21.5304 22.9804 21.5923 22.9702 21.6731ZM19.2721 20.1897H21.5935V19.7209H19.2721V20.1897Z" fill="#BDBDBD"/>
<path d="M8.98223 3.75488C8.98223 4.71919 8.98772 5.60667 8.97439 6.49415C8.97282 6.59451 8.88501 6.75679 8.80348 6.78266C7.06536 7.33459 5.32255 7.87085 3.54602 8.42042V6.28012C5.32882 5.45223 7.12338 4.61884 8.98223 3.75488Z" fill="#BDBDBD"/>
<path d="M8.96416 19.2246V21.597H3.54285V19.2246H8.96416Z" fill="#BDBDBD"/>
<path d="M8.95318 11.9743C7.15784 12.1813 5.36406 12.3875 3.54285 12.5968V10.6109C5.33349 10.1311 7.12648 9.65132 8.95318 9.16211V11.9743Z" fill="#BDBDBD"/>
<path d="M3.53265 16.7302V14.709C5.33741 14.5562 7.13432 14.4033 8.95867 14.248V16.7302H3.53265Z" fill="#BDBDBD"/>
<path d="M16.888 20.585C16.4568 19.5948 16.0601 18.7003 15.6838 17.7979C15.6446 17.7039 15.6822 17.518 15.7543 17.4483C16.111 17.1041 16.4913 16.785 16.8888 16.4346C17.3239 16.8226 17.7496 17.2021 18.1894 17.5949C17.7613 18.578 17.3419 19.5431 16.888 20.585Z" fill="#BDBDBD"/>
</g>
<defs>
<clipPath id="clip0_757_3897">
<rect width="23" height="21.6727" fill="white"/>
</clipPath>
</defs>
</svg>
