<svg width="20" height="18" viewBox="0 0 20 18" fill="none" xmlns="http://www.w3.org/2000/svg">
<g clip-path="url(#clip0_758_4994)">
<path d="M13.8823 11.6573C12.2695 11.6573 10.6567 11.6603 9.0439 11.6573C8.09378 11.6558 7.9538 11.5159 7.94784 10.597C7.9399 9.51585 8.46559 8.97527 9.52491 8.97527C12.6522 8.97527 15.7781 8.97378 18.9054 8.97527C19.7915 8.97527 19.9851 9.17631 19.9985 10.0698C20.0015 10.2441 20.0015 10.4168 19.9985 10.5911C19.9836 11.4384 19.7781 11.6529 18.9456 11.6558C17.2583 11.6618 15.5711 11.6573 13.8838 11.6573H13.8823Z" fill="#BDBDBD"/>
<path d="M13.9166 15.0381C15.6024 15.0381 17.2867 15.0351 18.9725 15.0396C19.8154 15.0425 19.9747 15.2019 19.9956 16.0224C20.0015 16.2205 20 16.4186 19.9956 16.6166C19.9792 17.4938 19.8258 17.6546 18.9472 17.6561C15.6262 17.6606 12.3053 17.6606 8.9844 17.6561C8.0596 17.6561 7.95238 17.5414 7.94494 16.6315C7.936 15.5692 8.46368 15.0381 9.52796 15.0381C10.9904 15.0381 12.4528 15.0381 13.9152 15.0381H13.9166Z" fill="#BDBDBD"/>
<path d="M14.9427 2.96702C16.3053 2.96702 17.6695 2.9849 19.0321 2.95958C19.7409 2.94618 20.0313 3.26933 19.9986 3.94692C19.9926 4.07052 19.9986 4.19413 19.9986 4.31922C19.9986 5.50314 19.9018 5.60142 18.7402 5.60142C16.1877 5.60142 13.6352 5.60291 11.0827 5.60142C10.0596 5.60142 9.95092 5.48378 9.94496 4.43389C9.94496 4.26114 9.95389 4.08691 9.94496 3.91416C9.90177 3.20828 10.2398 2.94469 10.9308 2.95958C12.2681 2.98787 13.6069 2.96702 14.9457 2.96851L14.9427 2.96702Z" fill="#BDBDBD"/>
<path d="M3.27173 4.61876C4.71923 3.16381 6.06249 1.81012 7.41022 0.460902C8.04164 -0.17052 8.11759 -0.143714 8.7922 0.48324C9.29109 0.946382 9.36555 1.31719 8.8339 1.83395C7.26726 3.35293 5.74231 4.91362 4.19503 6.45197C3.53234 7.11019 3.07962 7.11615 2.4199 6.47282C1.69317 5.76247 0.990266 5.02829 0.259067 4.32241C-0.25173 3.82799 0.0878087 3.50334 0.44075 3.15338C0.802626 2.79597 1.14068 2.37453 1.66636 2.92851C2.17716 3.4676 2.68945 4.00669 3.27173 4.62025V4.61876Z" fill="#BDBDBD"/>
<path d="M3.90767 8.97461C5.14817 8.97461 5.23901 9.06843 5.23901 10.3402C5.23901 11.5658 5.14073 11.6596 3.85554 11.6582C2.61951 11.6582 2.58228 11.615 2.58228 10.2523C2.58228 9.03567 2.64631 8.9761 3.90767 8.9761V8.97461Z" fill="#BDBDBD"/>
<path d="M2.58376 16.3387C2.58376 15.049 2.59568 15.0371 3.93 15.0371C5.20923 15.0371 5.24199 15.0714 5.23901 16.3863C5.23901 17.6179 5.19285 17.6581 3.84214 17.6566C2.6061 17.6566 2.58228 17.6313 2.58228 16.3372L2.58376 16.3387Z" fill="#BDBDBD"/>
</g>
<defs>
<clipPath id="clip0_758_4994">
<rect width="20" height="17.659" fill="white"/>
</clipPath>
</defs>
</svg>
