<svg width="20" height="18" viewBox="0 0 20 18" fill="none" xmlns="http://www.w3.org/2000/svg">
<path d="M15.9737 17.8843H3.19235C2.34618 17.8827 1.53511 17.5459 0.936767 16.9475C0.338428 16.3492 0.00158313 15.5381 0 14.6919L0 7.03147C-1.48553e-06 6.18426 0.336144 5.37165 0.934654 4.77202C1.53317 4.17238 2.34514 3.83472 3.19235 3.83313H15.9737C16.821 3.83472 17.6329 4.17238 18.2314 4.77202C18.83 5.37165 19.1661 6.18426 19.1661 7.03147V14.6919C19.1645 15.5381 18.8277 16.3492 18.2293 16.9475C17.631 17.5459 16.8199 17.8827 15.9737 17.8843ZM3.19235 5.11486C2.68404 5.11486 2.19654 5.31679 1.83711 5.67623C1.47767 6.03566 1.27574 6.52316 1.27574 7.03147V14.6919C1.27574 15.2002 1.47767 15.6877 1.83711 16.0472C2.19654 16.4066 2.68404 16.6085 3.19235 16.6085H15.9737C16.4821 16.6085 16.9696 16.4066 17.329 16.0472C17.6884 15.6877 17.8904 15.2002 17.8904 14.6919V7.03147C17.8904 6.52316 17.6884 6.03566 17.329 5.67623C16.9696 5.31679 16.4821 5.11486 15.9737 5.11486H3.19235Z" fill="#BDBDBD"/>
<path d="M12.7755 3.19235C12.6914 3.19235 12.608 3.17578 12.5303 3.14357C12.4525 3.11136 12.3819 3.06416 12.3224 3.00465C12.2628 2.94514 12.2156 2.87449 12.1834 2.79674C12.1512 2.71898 12.1347 2.63565 12.1347 2.55149V1.91661C12.1347 1.74767 12.068 1.58557 11.9491 1.46555C11.8302 1.34554 11.6687 1.27732 11.4998 1.27574H7.66655C7.49658 1.27574 7.33358 1.34326 7.21339 1.46345C7.09321 1.58363 7.02569 1.74664 7.02569 1.91661V2.55149C7.03432 2.64045 7.02424 2.73023 6.99611 2.81507C6.96799 2.8999 6.92242 2.97792 6.86235 3.0441C6.80228 3.11028 6.72903 3.16316 6.64731 3.19935C6.56558 3.23554 6.47719 3.25424 6.38781 3.25424C6.29844 3.25424 6.21005 3.23554 6.12832 3.19935C6.0466 3.16316 5.97335 3.11028 5.91328 3.0441C5.85321 2.97792 5.80764 2.8999 5.77951 2.81507C5.75139 2.73023 5.74131 2.64045 5.74994 2.55149V1.91661C5.74994 1.40829 5.95187 0.920796 6.3113 0.561362C6.67074 0.201928 7.15824 0 7.66655 0H11.4998C12.0081 0 12.4956 0.201928 12.855 0.561362C13.2145 0.920796 13.4164 1.40829 13.4164 1.91661V2.55149C13.4164 2.63565 13.3998 2.71898 13.3676 2.79674C13.3354 2.87449 13.2882 2.94514 13.2287 3.00465C13.1692 3.06416 13.0985 3.11136 13.0208 3.14357C12.943 3.17578 12.8597 3.19235 12.7755 3.19235Z" fill="#BDBDBD"/>
<path d="M9.56746 11.3376C9.10361 11.3309 8.64573 11.1773 8.22285 10.8864L5.08543 8.77387C4.96656 8.695 4.8731 8.54733 4.82561 8.36334C4.77812 8.17936 4.78049 7.97414 4.8322 7.79282C4.8839 7.6115 4.98072 7.46894 5.10133 7.3965C5.22195 7.32406 5.3565 7.32767 5.47537 7.40655L8.61279 9.53274C8.91834 9.73945 9.24889 9.84624 9.58315 9.84624C9.91741 9.84624 10.248 9.73945 10.5535 9.53274L13.6909 7.40655C13.7498 7.36749 13.8131 7.34651 13.8773 7.34478C13.9415 7.34306 14.0052 7.36063 14.065 7.3965C14.1247 7.43237 14.1792 7.48583 14.2254 7.55383C14.2716 7.62183 14.3085 7.70304 14.3341 7.79282C14.3597 7.8826 14.3735 7.97919 14.3746 8.07708C14.3757 8.17497 14.3642 8.27224 14.3407 8.36334C14.3172 8.45444 14.2821 8.53758 14.2376 8.60802C14.193 8.67846 14.1397 8.73482 14.0809 8.77387L10.9121 10.8864C10.4892 11.1773 10.0313 11.3309 9.56746 11.3376Z" fill="#BDBDBD"/>
</svg>
