<svg width="17" height="23" viewBox="0 0 17 23" fill="none" xmlns="http://www.w3.org/2000/svg">
<g clip-path="url(#clip0_757_3886)">
<path d="M4.41527 11C4.37712 10.283 4.34012 9.5865 4.30197 8.89129C4.23028 7.57656 4.15513 6.26182 4.08576 4.94581C4.05223 4.31217 4.0083 3.67853 4.0002 3.04489C3.98517 1.93667 4.80375 1.01186 5.80384 1.00673C7.59591 0.997755 9.38914 0.997755 11.1824 1.00673C12.2264 1.01186 13.0507 1.97771 12.9976 3.13596C12.9351 4.52253 12.8496 5.90781 12.7767 7.29309C12.7201 8.35514 12.6681 9.41719 12.6126 10.4805C12.6033 10.6485 12.5894 10.8166 12.5756 10.9987H4.41527V11Z" stroke="#BDBDBD" stroke-miterlimit="10"/>
<path d="M8.52407 13.0794C10.5838 13.0794 12.6449 13.0794 14.7047 13.0794C15.2156 13.0794 15.5739 13.3152 15.7214 13.7353C15.8794 14.1831 15.7503 14.6019 15.3355 14.9245C14.7666 15.367 14.0975 15.6067 13.4193 15.8161C12.4737 16.1085 11.5004 16.2415 10.5114 16.2428C9.05613 16.2468 7.60087 16.2586 6.14692 16.2257C4.78121 16.1941 3.46687 15.8938 2.24471 15.2643C2.0037 15.1405 1.77323 14.9798 1.56778 14.8007C1.25039 14.5215 1.16347 14.0909 1.33072 13.7076C1.50061 13.3191 1.79035 13.0847 2.23549 13.0847C3.96995 13.0834 5.70442 13.0808 7.4402 13.0781C7.80105 13.0781 8.1619 13.0781 8.52275 13.0781L8.52407 13.0794Z" stroke="#BDBDBD" stroke-miterlimit="10"/>
<path d="M9.04154 18.8857C9.04154 19.4191 9.03627 19.9393 9.04813 20.4608C9.04944 20.5267 9.12319 20.6057 9.18246 20.6544C9.57228 20.9665 9.7593 21.3564 9.64604 21.8555C9.53804 22.3296 9.23514 22.6259 8.76102 22.7366C8.23555 22.859 7.70217 22.5891 7.4717 22.0925C7.24123 21.5947 7.37293 21.0192 7.81938 20.6966C7.96293 20.5925 8.00639 20.4885 8.00244 20.3225C7.99191 19.8589 7.99718 19.3954 7.99454 18.9318C7.99454 18.9186 7.98532 18.9055 7.97742 18.8818C7.95635 18.8765 7.93001 18.8646 7.90367 18.8646C7.11348 18.8646 6.32461 18.8501 5.53574 18.8686C4.62439 18.891 3.83157 19.5126 3.54051 20.3884C3.4931 20.5319 3.50891 20.6136 3.63797 20.7137C4.07521 21.0561 4.1911 21.65 3.93956 22.1426C3.69723 22.618 3.13883 22.8656 2.61731 22.73C2.09842 22.5956 1.72835 22.1044 1.75205 21.5697C1.76917 21.1838 1.9417 20.8743 2.25909 20.6557C2.36577 20.582 2.42635 20.5069 2.45664 20.3726C2.79247 18.8738 4.05414 17.8321 5.58183 17.8216C7.55204 17.8071 9.52224 17.8058 11.4924 17.8242C13.0057 17.8387 14.2831 18.9199 14.6018 20.4015C14.6203 20.4858 14.6861 20.5807 14.7572 20.6307C15.2182 20.9507 15.4052 21.496 15.2155 22.003C15.0246 22.5087 14.5123 22.8327 14.0052 22.7668C13.4495 22.6944 13.0149 22.2598 12.9727 21.6988C12.9424 21.2905 13.0952 20.9428 13.4258 20.6952C13.5351 20.6136 13.5456 20.5372 13.5101 20.4226C13.2546 19.5666 12.4486 18.9041 11.5609 18.8738C10.751 18.8475 9.93841 18.8659 9.12714 18.8659C9.10739 18.8659 9.08632 18.8765 9.04022 18.8883L9.04154 18.8857Z" fill="#BDBDBD"/>
<path d="M14.262 11.2231C14.3305 10.2182 14.3924 9.30952 14.4543 8.4008C14.478 8.04785 14.4978 7.69358 14.528 7.34063C14.5728 6.81384 14.9021 6.42928 15.388 6.32655C15.8384 6.23041 16.3218 6.45825 16.5417 6.8731C16.6734 7.12069 16.705 7.38409 16.6313 7.65275C16.2915 8.88413 15.9464 10.1155 15.5987 11.3443C15.4934 11.7183 15.1905 11.9145 14.8323 11.8631C14.4925 11.8144 14.2581 11.5115 14.262 11.2244V11.2231Z" fill="#BDBDBD" stroke="#BDBDBD" stroke-miterlimit="10"/>
<path d="M1.43725 6.30801C2.02463 6.31327 2.46976 6.74129 2.51191 7.34184C2.59883 8.57585 2.68575 9.80986 2.77267 11.0426C2.80296 11.4679 2.58698 11.7906 2.22481 11.8578C1.85473 11.9262 1.55315 11.7168 1.42672 11.2967C1.3635 11.09 1.3095 10.8792 1.25156 10.6712C0.969724 9.66367 0.681305 8.6575 0.410007 7.64606C0.226947 6.95991 0.743203 6.3001 1.43725 6.30669V6.30801Z" fill="#BDBDBD" stroke="#BDBDBD" stroke-miterlimit="10"/>
</g>
<defs>
<clipPath id="clip0_757_3886">
<rect width="17" height="23" fill="white"/>
</clipPath>
</defs>
</svg>
