<svg width="24" height="20" viewBox="0 0 24 20" fill="none" xmlns="http://www.w3.org/2000/svg">
<g clip-path="url(#clip0_757_3893)">
<path d="M22.58 16.7298C22.1892 16.4272 21.7957 16.1264 21.4031 15.8256L20.2685 14.9574C19.0202 14.002 17.7727 13.0456 16.5234 12.0911C16.0797 11.7514 15.8124 11.7858 15.4648 12.2278C15.3642 12.3557 15.2645 12.4854 15.1595 12.6204L13.5397 11.3826C14.5719 9.74342 14.9389 7.82809 14.5746 5.95598C14.1996 4.03271 13.0712 2.32117 11.4788 1.2616C8.26835 -0.876936 4.03009 -0.239962 1.62247 2.742C0.479091 4.1571 -0.0925981 5.94275 0.012388 7.76986C0.118256 9.59785 0.89286 11.312 2.19416 12.5975C3.49987 13.8855 5.07466 14.5904 6.87618 14.6928C7.0394 14.7016 7.20085 14.7069 7.36053 14.7069C9.49201 14.7069 11.3332 13.889 12.8445 12.271L14.4722 13.5185C14.3593 13.6685 14.2517 13.8114 14.1414 13.9535C14.0002 14.1334 13.9429 14.3055 13.965 14.4784C13.987 14.6478 14.0858 14.8004 14.2587 14.9327C15.1842 15.6376 16.107 16.3452 17.0307 17.0519C18.1326 17.8953 19.2716 18.7678 20.3956 19.6227C20.722 19.8706 21.1093 20.0021 21.5072 20.0021C21.591 20.0021 21.6757 19.9959 21.7604 19.9844C22.2386 19.9174 22.662 19.6686 22.9514 19.2822C23.5531 18.4802 23.3899 17.3598 22.58 16.7325V16.7298ZM13.5953 7.28375C13.6129 8.94764 12.9777 10.5224 11.8079 11.7179C10.638 12.9133 9.07825 13.5811 7.41611 13.597C7.39494 13.597 7.37377 13.597 7.35259 13.597C5.7081 13.597 4.16066 12.9609 2.98993 11.8026C1.80333 10.6283 1.14077 9.05263 1.12401 7.36579C1.10813 5.7363 1.74245 4.18357 2.91142 2.99431C4.0892 1.79624 5.64811 1.12839 7.29966 1.11603C7.31554 1.11603 7.33142 1.11603 7.34818 1.11603C10.7607 1.11603 13.5591 3.87302 13.5944 7.28286L13.5953 7.28375ZM21.0264 18.6902C19.8874 17.8194 18.7502 16.9478 17.613 16.0761L15.2971 14.3011L16.1317 13.2133L16.6399 13.6006C17.1639 14.0002 17.6827 14.3955 18.2014 14.7916L18.6496 15.1339C19.6836 15.9252 20.7538 16.7431 21.8027 17.5512C22.0383 17.733 22.1759 17.9544 22.19 18.1758C22.2015 18.3532 22.1318 18.5226 21.988 18.6664C21.711 18.9434 21.3696 18.9513 21.0264 18.6893V18.6902Z" fill="#BDBDBD"/>
<path d="M9.65253 7.82324C9.15142 7.39183 8.61502 7.10863 8.05568 6.97453C8.81352 6.6631 9.34375 5.93437 9.36404 5.05743C9.37815 4.48398 9.16642 3.9414 8.76941 3.52852C8.37505 3.11916 7.84483 2.88889 7.27667 2.88184C7.26696 2.88184 7.25638 2.88184 7.24667 2.88184C6.67322 2.88184 6.13594 3.09975 5.73099 3.49675C5.32516 3.89464 5.09931 4.42751 5.09578 4.99744C5.08961 5.89908 5.65335 6.6781 6.44913 6.99129C6.23122 7.04423 6.01154 7.11657 5.79098 7.21097C4.46234 7.77913 3.70538 8.86869 3.60304 10.3606C3.5898 10.552 3.58892 10.7514 3.72831 10.9005C3.8783 11.061 4.10062 11.0619 4.26295 11.0619C4.97933 11.0619 5.69482 11.0619 6.41119 11.0619H7.23697C7.50958 11.0619 7.78219 11.0619 8.0548 11.061C8.76941 11.0602 9.50873 11.0584 10.2348 11.0655C10.241 11.0655 10.248 11.0655 10.256 11.0655C10.353 11.0655 10.5762 11.0549 10.7324 10.8899C10.9 10.7126 10.8859 10.4717 10.8806 10.3923C10.8153 9.33186 10.4024 8.46815 9.65429 7.82412L9.65253 7.82324Z" fill="#BDBDBD"/>
</g>
<defs>
<clipPath id="clip0_757_3893">
<rect width="23.314" height="19.9994" fill="white"/>
</clipPath>
</defs>
</svg>
